Coordinates
version=1
nRows=8
nColumns=40
inDegrees=yes

Units are S.I. units (second, meters, Newtons, ...)
Angles are in degrees.

endheader
time	pelvis_tilt	pelvis_list	pelvis_rotation	pelvis_tx	pelvis_ty	pelvis_tz	hip_flexion_r	hip_adduction_r	hip_rotation_r	knee_angle_r	knee_angle_r_beta	ankle_angle_r	subtalar_angle_r	mtp_angle_r	hip_flexion_l	hip_adduction_l	hip_rotation_l	knee_angle_l	knee_angle_l_beta	ankle_angle_l	subtalar_angle_l	mtp_angle_l	lumbar_extension	lumbar_bending	lumbar_rotation	arm_flex_r	arm_add_r	arm_rot_r	elbow_flex_r	pro_sup_r	wrist_flex_r	wrist_dev_r	arm_flex_l	arm_add_l	arm_rot_l	elbow_flex_l	pro_sup_l	wrist_flex_l	wrist_dev_l
      0.43000000	     -0.85756370	     -0.46002088	     12.12429622	     -0.74429404	      0.87585380	     -1.46303209	     28.74151299	     -6.47900342	    -18.34512315	    -27.39278655	     -0.47809432	      0.72662632	     -8.27118785	     10.26173403	     -8.34777691	      8.22510033	      4.50450215	    -35.32616850	     -0.61655795	     -1.93161179	      7.40028054	     -6.16795360	     -4.60302173	      0.38320888	    -14.82797430	    -14.01227401	     -9.25566658	    -23.02991556	     24.53465312	     89.95437384	      0.00000000	      0.00000000	      0.36390662	     20.01867000	     22.14353312	     86.75890960	     89.95437384	      0.00000000	      0.00000000
      0.44000000	     -1.05022319	     -0.84430920	     11.61452286	     -0.72974514	      0.87485685	     -1.46113924	     29.05674932	     -5.75878236	    -17.43522733	    -28.71659217	     -0.50119908	     -0.64467988	     -7.91119013	     10.06729138	     -7.61860921	      8.66159923	      4.20680685	    -37.34155899	     -0.65173315	     -4.77277940	      9.10437333	     -5.55394537	     -4.11511201	      0.89021143	    -14.28185589	    -13.46508393	     -9.40455798	    -22.74886873	     23.52628444	     89.95437384	      0.00000000	      0.00000000	     -0.51398153	     19.70873506	     22.29672085	     87.08462598	     89.95437384	      0.00000000	      0.00000000
      0.45000000	     -1.37543827	     -1.09871993	     11.07947064	     -0.71560195	      0.87388738	     -1.45950079	     29.47496143	     -5.05266511	    -16.31771824	    -30.08519259	     -0.52508567	     -0.85015526	     -9.18333401	      9.96221102	     -6.46107916	      8.79320779	      3.78696739	    -39.74961564	     -0.69376167	     -7.98121081	     11.62207017	     -4.70707267	     -3.56128832	      1.23906385	    -13.70579701	    -12.85078655	     -9.58427033	    -22.19122351	     22.53019270	     89.95437384	      0.00000000	      0.00000000	     -1.44086350	     19.41929434	     22.31915410	     87.34318518	     89.95437384	      0.00000000	      0.00000000
      0.46000000	     -1.11502220	     -1.41640458	     10.60255387	     -0.70075264	      0.87388023	     -1.45788366	     28.93112089	     -4.26709451	    -15.92170927	    -31.20718109	     -0.54466806	     -0.16755265	     -9.94531318	      9.77210194	     -5.94411387	      9.23825338	      3.63216561	    -41.94238386	     -0.73203269	    -11.48610470	     13.04274738	     -3.95567712	     -3.61348171	      1.76439941	    -13.06567281	    -12.27038129	     -9.71422351	    -21.88136707	     21.67880080	     89.95437384	      0.00000000	      0.00000000	     -2.31434221	     19.13192224	     22.17165271	     87.50407320	     89.95437384	      0.00000000	      0.00000000
      0.47000000	     -1.28266437	     -1.88471724	     10.00014564	     -0.68662770	      0.87335249	     -1.45584829	     28.77919417	     -3.01929495	    -14.59876469	    -31.88284996	     -0.55646071	      0.07849157	    -11.28971039	      9.87000900	     -4.62835562	      9.70709675	      3.37916022	    -44.63829425	     -0.77908521	    -13.96284432	     14.75565263	     -2.56942210	     -3.23557649	      2.34265128	    -12.41788462	    -11.67519951	     -9.87854493	    -21.25507134	     21.06475271	     89.95437384	      0.00000000	      0.00000000	     -3.34909147	     18.78395912	     22.15355709	     87.58940926	     89.95437384	      0.00000000	      0.00000000
      0.48000000	     -1.11529850	     -2.27106624	      9.48198570	     -0.67248246	      0.87350775	     -1.45383185	     28.07959179	     -1.88323077	    -13.65596767	    -32.46268905	     -0.56658081	      1.05631343	    -11.59910814	     10.99550088	     -3.54772119	     10.06127663	      2.91168150	    -47.58238806	     -0.83046934	    -14.89149240	     14.38726315	      9.07108645	     -3.27133440	      2.84342327	    -11.74139552	    -11.08961305	     -9.90847666	    -20.85941802	     20.66272534	     89.95437384	      0.00000000	      0.00000000	     -4.22263987	     18.40190776	     22.09138598	     87.56249661	     89.95437384	      0.00000000	      0.00000000
      0.49000000	     -0.77582500	     -2.53703406	      9.02607114	     -0.65853970	      0.87407134	     -1.45217138	     27.07643313	     -1.06212099	    -13.25781014	    -33.00823109	     -0.57610231	      2.28002678	    -11.58618660	     10.65475909	     -2.59230125	     10.27908420	      2.44777320	    -50.34502412	     -0.87868643	    -17.02353938	     15.54000043	      9.46210596	     -3.56801172	      3.24869360	    -11.14545391	    -10.41311450	     -9.90053029	    -20.62004238	     20.37615466	     89.95437384	      0.00000000	      0.00000000	     -5.14188405	     18.06829190	     21.92112554	     87.48371517	     89.95437384	      0.00000000	      0.00000000
      0.50000000	     -0.56256432	     -2.74132934	      8.47217266	     -0.64498644	      0.87470187	     -1.45035906	     26.15231159	     -0.28450597	    -12.70939192	    -33.42465201	     -0.58337023	      3.40405797	    -11.55094013	     10.34302616	     -1.34504638	     10.33709881	      2.04762175	    -53.19553555	     -0.92843724	    -19.00172520	     16.59434671	      9.92673955	     -3.78739224	      3.53014751	    -10.45853774	     -9.76783735	     -9.86775739	    -20.26316382	     20.32069382	     89.95437384	      0.00000000	      0.00000000	     -6.03249829	     17.67742152	     21.79604305	     87.25355075	     89.95437384	      0.00000000	      0.00000000
